<svg width="133" height="44" viewBox="0 0 133 44" fill="none" xmlns="http://www.w3.org/2000/svg">
<g id="Group 48759">
<g id="Group 48758">
<path id="Vector 1023" d="M25.8297 30.875H17.9681L14.25 40.5934H31.441L25.8297 30.875Z" fill="url(#paint0_linear_5684_6754)"/>
<path id="Vector 1021" d="M32.5885 11.6491L25.7812 0L0.867188 44H14.694L32.5885 11.6491Z" fill="url(#paint1_linear_5684_6754)"/>
<path id="Vector 1022" d="M50.6987 43.9981L34.626 15.5771L27.6797 27.1562L37.2943 43.9981H50.6987Z" fill="url(#paint2_linear_5684_6754)"/>
</g>
<g id="Amy Finance">
<path id="Vector" d="M123.535 43.7435C123.465 43.7435 123.43 43.6996 123.43 43.6119L123.456 25.5383C123.456 25.4682 123.491 25.4331 123.561 25.4331H132.006C132.076 25.4331 132.111 25.477 132.111 25.5646V28.5111C132.111 28.5813 132.076 28.6164 132.006 28.6164H126.613V32.7204H132.006C132.076 32.7204 132.111 32.7555 132.111 32.8257L132.138 35.7985C132.138 35.8686 132.103 35.9037 132.033 35.9037H126.613V40.5076H132.033C132.103 40.5076 132.138 40.5514 132.138 40.6391V43.6382C132.138 43.7084 132.103 43.7435 132.033 43.7435H123.535Z" fill="black"/>
<path id="Vector_2" d="M116.36 43.9995C115.395 43.9995 114.518 43.7628 113.729 43.2892C112.957 42.7982 112.343 42.1492 111.887 41.3424C111.431 40.5357 111.203 39.6324 111.203 38.6327L111.229 30.4246C111.229 29.46 111.449 28.5831 111.887 27.7938C112.343 26.987 112.957 26.3469 113.729 25.8733C114.518 25.3823 115.395 25.1367 116.36 25.1367C117.324 25.1367 118.192 25.3735 118.964 25.847C119.736 26.3206 120.35 26.9607 120.806 27.7675C121.262 28.5568 121.49 29.4425 121.49 30.4246V31.6348C121.49 31.7049 121.455 31.74 121.384 31.74H118.438C118.368 31.74 118.333 31.7049 118.333 31.6348V30.4246C118.333 29.8458 118.14 29.346 117.754 28.9251C117.386 28.5041 116.921 28.2937 116.36 28.2937C115.728 28.2937 115.246 28.5129 114.913 28.9514C114.579 29.3723 114.413 29.8634 114.413 30.4246V38.6327C114.413 39.2817 114.597 39.8078 114.965 40.2112C115.351 40.6146 115.816 40.8163 116.36 40.8163C116.921 40.8163 117.386 40.5971 117.754 40.1586C118.14 39.7026 118.333 39.194 118.333 38.6327V37.4226C118.333 37.3524 118.368 37.3173 118.438 37.3173H121.411C121.481 37.3173 121.516 37.3524 121.516 37.4226V38.6327C121.516 39.6324 121.279 40.5357 120.806 41.3424C120.35 42.1492 119.736 42.7982 118.964 43.2892C118.192 43.7628 117.324 43.9995 116.36 43.9995Z" fill="black"/>
<path id="Vector_3" d="M99.5024 43.7435C99.3621 43.7435 99.2919 43.6821 99.2919 43.5593L99.2656 25.6436C99.2656 25.5033 99.3358 25.4331 99.4761 25.4331H101.844L106.29 35.7985L106.158 25.6436C106.158 25.5033 106.237 25.4331 106.395 25.4331H109C109.105 25.4331 109.158 25.5033 109.158 25.6436L109.184 43.5856C109.184 43.6909 109.14 43.7435 109.052 43.7435H106.737L102.186 34.0621L102.37 43.533C102.37 43.6733 102.291 43.7435 102.133 43.7435H99.5024Z" fill="black"/>
<path id="Vector_4" d="M87.1719 43.6119L90.4341 25.5383C90.4517 25.4682 90.4955 25.4331 90.5657 25.4331H94.3804C94.4505 25.4331 94.4944 25.4682 94.5119 25.5383L97.6426 43.6119C97.6601 43.6996 97.6251 43.7435 97.5374 43.7435H94.6171C94.547 43.7435 94.5031 43.6996 94.4856 43.6119L94.1962 41.6914H90.6183L90.3289 43.6119C90.3113 43.6996 90.2675 43.7435 90.1973 43.7435H87.2771C87.207 43.7435 87.1719 43.6996 87.1719 43.6119ZM91.1444 38.8765H93.67L92.5914 31.4839L92.4335 30.5105L92.3283 31.4839L91.1444 38.8765Z" fill="black"/>
<path id="Vector_5" d="M76.0805 43.7435C75.9402 43.7435 75.8701 43.6821 75.8701 43.5593L75.8438 25.6436C75.8438 25.5033 75.9139 25.4331 76.0542 25.4331H78.422L82.8681 35.7985L82.7365 25.6436C82.7365 25.5033 82.8155 25.4331 82.9733 25.4331H85.5778C85.6831 25.4331 85.7357 25.5033 85.7357 25.6436L85.762 43.5856C85.762 43.6909 85.7182 43.7435 85.6305 43.7435H83.3153L78.764 34.0621L78.9481 43.533C78.9481 43.6733 78.8692 43.7435 78.7114 43.7435H76.0805Z" fill="black"/>
<path id="Vector_6" d="M70.4519 43.7435C70.3642 43.7435 70.3203 43.6996 70.3203 43.6119L70.3466 25.5383C70.3466 25.4682 70.3817 25.4331 70.4519 25.4331H73.3984C73.4685 25.4331 73.5036 25.4682 73.5036 25.5383L73.5299 43.6119C73.5299 43.6996 73.4949 43.7435 73.4247 43.7435H70.4519Z" fill="black"/>
<path id="Vector_7" d="M59.1159 43.7435C59.0282 43.7435 58.9844 43.6996 58.9844 43.6119L59.037 25.5383C59.037 25.4682 59.0721 25.4331 59.1422 25.4331H67.5609C67.6486 25.4331 67.6924 25.4682 67.6924 25.5383V28.5111C67.6924 28.5813 67.6574 28.6164 67.5872 28.6164H62.194V32.6941H67.5872C67.6574 32.6941 67.6924 32.738 67.6924 32.8257L67.7188 35.7985C67.7188 35.8686 67.6749 35.9037 67.5872 35.9037H62.194V43.6119C62.194 43.6996 62.1501 43.7435 62.0625 43.7435H59.1159Z" fill="black"/>
<path id="Vector_8" d="M86.841 21.4744C86.7884 21.4744 86.7621 21.4393 86.7621 21.3692L86.7884 13.8977L83.2631 3.26929C83.2455 3.19914 83.2718 3.16406 83.342 3.16406H86.2622C86.3499 3.16406 86.4025 3.19914 86.4201 3.26929L88.3669 10.3461L90.34 3.26929C90.3576 3.19914 90.4014 3.16406 90.4716 3.16406H93.4181C93.4883 3.16406 93.5146 3.19914 93.497 3.26929L89.9454 13.7925L89.9717 21.3692C89.9717 21.4393 89.9366 21.4744 89.8665 21.4744H86.841Z" fill="black"/>
<path id="Vector_9" d="M70.3787 21.4744C70.3085 21.4744 70.2734 21.4306 70.2734 21.3429L70.3261 3.26929C70.3261 3.19914 70.3611 3.16406 70.4313 3.16406H73.6409C73.7111 3.16406 73.7724 3.19914 73.8251 3.26929L76.2191 6.74195L78.6132 3.26929C78.6658 3.19914 78.7272 3.16406 78.7973 3.16406H82.0333C82.1034 3.16406 82.1385 3.19914 82.1385 3.26929L82.1911 21.3429C82.1911 21.4306 82.156 21.4744 82.0859 21.4744H79.113C79.0429 21.4744 79.0078 21.4306 79.0078 21.3429L78.9815 7.92581L76.2191 11.9246L73.4831 7.92581L73.4567 21.3429C73.4567 21.4306 73.4217 21.4744 73.3515 21.4744H70.3787Z" fill="black"/>
<path id="Vector_10" d="M58.1641 21.3429L61.4263 3.26929C61.4438 3.19914 61.4877 3.16406 61.5578 3.16406H65.3726C65.4427 3.16406 65.4866 3.19914 65.5041 3.26929L68.6348 21.3429C68.6523 21.4306 68.6173 21.4744 68.5296 21.4744H65.6093C65.5392 21.4744 65.4953 21.4306 65.4778 21.3429L65.1884 19.4224H61.6105L61.3211 21.3429C61.3035 21.4306 61.2597 21.4744 61.1895 21.4744H58.2693C58.1991 21.4744 58.1641 21.4306 58.1641 21.3429ZM62.1366 16.6074H64.6622L63.5836 9.2149L63.4257 8.24151L63.3205 9.2149L62.1366 16.6074Z" fill="black"/>
</g>
</g>
<defs>
<linearGradient id="paint0_linear_5684_6754" x1="18.3627" y1="35.1135" x2="28.3382" y2="35.2059" gradientUnits="userSpaceOnUse">
<stop stop-color="#2A34FE"/>
<stop offset="1" stop-color="#069FFF"/>
</linearGradient>
<linearGradient id="paint1_linear_5684_6754" x1="25.8264" y1="10.6766" x2="6.9468" y2="44.001" gradientUnits="userSpaceOnUse">
<stop stop-color="#015DF4"/>
<stop offset="1" stop-color="#25E1FF"/>
</linearGradient>
<linearGradient id="paint2_linear_5684_6754" x1="32.1236" y1="22.7191" x2="44.6015" y2="43.9988" gradientUnits="userSpaceOnUse">
<stop stop-color="#015DF4"/>
<stop offset="1" stop-color="#25E1FF"/>
</linearGradient>
</defs>
</svg>
