<svg width="161" height="49" viewBox="0 0 161 49" fill="none" xmlns="http://www.w3.org/2000/svg">
<path d="M27.8156 33.9043H19.1838L15.1016 44.5753H33.9765L27.8156 33.9043Z" fill="url(#paint0_linear_6576_7776)"/>
<path d="M35.2582 12.791L27.7842 0L0.429688 48.3131H15.6109L35.2582 12.791Z" fill="url(#paint1_linear_6576_7776)"/>
<path d="M55.1332 48.3129L37.4861 17.106L29.8594 29.82L40.4158 48.3129H55.1332Z" fill="url(#paint2_linear_6576_7776)"/>
<path d="M151.075 48.027C150.999 48.027 150.961 47.9793 150.961 47.884L150.99 28.2306C150.99 28.1544 151.028 28.1162 151.104 28.1162H160.287C160.363 28.1162 160.401 28.1639 160.401 28.2592V31.4633C160.401 31.5396 160.363 31.5777 160.287 31.5777H154.422V36.0405H160.287C160.363 36.0405 160.401 36.0786 160.401 36.1549L160.43 39.3875C160.43 39.4638 160.392 39.502 160.316 39.502H154.422V44.5083H160.316C160.392 44.5083 160.43 44.556 160.43 44.6513V47.9126C160.43 47.9889 160.392 48.027 160.316 48.027H151.075Z" fill="black"/>
<path d="M143.313 48.3133C142.283 48.3133 141.348 48.0558 140.509 47.5409C139.67 47.026 138.993 46.3394 138.478 45.4812C137.982 44.6039 137.734 43.6312 137.734 42.5632V33.4946C137.734 32.4648 137.982 31.5207 138.478 30.6625C138.993 29.7852 139.67 29.0891 140.509 28.5742C141.368 28.0592 142.302 27.8018 143.313 27.8018C144.362 27.8018 145.306 28.0592 146.145 28.5742C147.003 29.07 147.68 29.7471 148.176 30.6053C148.672 31.4635 148.92 32.4266 148.92 33.4946V34.8106C148.92 34.8869 148.872 34.925 148.777 34.925H145.573C145.497 34.925 145.458 34.8869 145.458 34.8106V33.7235C145.458 32.9988 145.249 32.398 144.829 31.9212C144.429 31.4444 143.923 31.206 143.313 31.206C142.76 31.206 142.264 31.4349 141.825 31.8926C141.406 32.3503 141.196 32.8843 141.196 33.4946V42.5632C141.196 43.1926 141.406 43.7361 141.825 44.1938C142.245 44.6325 142.741 44.8518 143.313 44.8518C143.923 44.8518 144.429 44.6325 144.829 44.1938C145.249 43.7552 145.458 43.2116 145.458 42.5632V41.1614H143.456C143.361 41.1614 143.313 41.1138 143.313 41.0184V37.8144C143.313 37.719 143.361 37.6713 143.456 37.6713H148.805C148.882 37.6713 148.92 37.719 148.92 37.8144V42.5632C148.92 43.6312 148.662 44.6039 148.147 45.4812C147.652 46.3394 146.984 47.026 146.145 47.5409C145.306 48.0558 144.362 48.3133 143.313 48.3133Z" fill="black"/>
<path d="M125.062 48.027C124.91 48.027 124.833 47.9602 124.833 47.8267L124.805 28.3451C124.805 28.1925 124.881 28.1162 125.034 28.1162H127.608L132.443 39.3875L132.3 28.3451C132.3 28.1925 132.386 28.1162 132.557 28.1162H135.389C135.504 28.1162 135.561 28.1925 135.561 28.3451L135.59 47.8554C135.59 47.9698 135.542 48.027 135.447 48.027H132.929L127.98 37.4995L128.18 47.7981C128.18 47.9507 128.095 48.027 127.923 48.027H125.062Z" fill="black"/>
<path d="M111.633 47.884L115.18 28.2306C115.199 28.1544 115.247 28.1162 115.323 28.1162H119.471C119.548 28.1162 119.595 28.1544 119.614 28.2306L123.019 47.884C123.038 47.9793 123 48.027 122.904 48.027H119.729C119.652 48.027 119.605 47.9793 119.586 47.884L119.271 45.7956H115.38L115.066 47.884C115.047 47.9793 114.999 48.027 114.923 48.027H111.747C111.671 48.027 111.633 47.9793 111.633 47.884ZM115.953 42.7346H118.699L117.526 34.6959L117.354 33.6375L117.24 34.6959L115.953 42.7346Z" fill="black"/>
<path d="M99.1301 48.027C99.0538 48.027 99.0156 47.9793 99.0156 47.884L99.0442 28.2306C99.0442 28.1544 99.0919 28.1162 99.1873 28.1162H102.363C102.458 28.1162 102.506 28.1544 102.506 28.2306L102.477 36.0119H106.768V28.2306C106.768 28.1544 106.806 28.1162 106.883 28.1162H110.058C110.153 28.1162 110.201 28.1544 110.201 28.2306L110.258 47.884C110.258 47.9793 110.211 48.027 110.115 48.027H106.911C106.816 48.027 106.768 47.9793 106.768 47.884V39.4734H102.477V47.884C102.477 47.9793 102.439 48.027 102.363 48.027H99.1301Z" fill="black"/>
<path d="M91.3258 48.3133C90.2769 48.3133 89.3233 48.0558 88.4651 47.5409C87.6259 47.0069 86.9584 46.3012 86.4625 45.4239C85.9667 44.5467 85.7188 43.5645 85.7188 42.4774L85.7474 33.5519C85.7474 32.5029 85.9858 31.5493 86.4625 30.6911C86.9584 29.8138 87.6259 29.1177 88.4651 28.6028C89.3233 28.0688 90.2769 27.8018 91.3258 27.8018C92.3748 27.8018 93.3188 28.0592 94.1579 28.5742C94.9971 29.0891 95.6646 29.7852 96.1605 30.6625C96.6563 31.5207 96.9043 32.4838 96.9043 33.5519V34.8678C96.9043 34.9441 96.8661 34.9822 96.7898 34.9822H93.5858C93.5095 34.9822 93.4714 34.9441 93.4714 34.8678V33.5519C93.4714 32.9225 93.2616 32.3789 92.842 31.9212C92.4415 31.4635 91.9361 31.2347 91.3258 31.2347C90.6392 31.2347 90.1148 31.473 89.7524 31.9498C89.39 32.4076 89.2089 32.9416 89.2089 33.5519V42.4774C89.2089 43.183 89.4091 43.7552 89.8096 44.1938C90.2292 44.6325 90.7346 44.8518 91.3258 44.8518C91.9361 44.8518 92.4415 44.6134 92.842 44.1366C93.2616 43.6408 93.4714 43.0877 93.4714 42.4774V41.1614C93.4714 41.0851 93.5095 41.047 93.5858 41.047H96.8184C96.8947 41.047 96.9329 41.0851 96.9329 41.1614V42.4774C96.9329 43.5645 96.6754 44.5467 96.1605 45.4239C95.6646 46.3012 94.9971 47.0069 94.1579 47.5409C93.3188 48.0558 92.3748 48.3133 91.3258 48.3133Z" fill="black"/>
<path d="M74.5525 48.027C74.4762 48.027 74.4476 47.9793 74.4667 47.884L77.7279 37.6711L74.5239 28.2306C74.5048 28.1544 74.5334 28.1162 74.6097 28.1162H77.8137C77.9091 28.1162 77.9663 28.1544 77.9854 28.2306L79.9021 35.0392L81.8474 28.2306C81.8665 28.1544 81.9237 28.1162 82.019 28.1162H85.1945C85.2707 28.1162 85.2993 28.1544 85.2803 28.2306L82.0762 37.6425L85.3089 47.884C85.347 47.9793 85.3184 48.027 85.2231 48.027H82.019C81.9427 48.027 81.8855 47.9793 81.8474 47.884L79.9021 40.5032L77.9282 47.884C77.9091 47.9793 77.8519 48.027 77.7565 48.027H74.5525Z" fill="black"/>
<path d="M64.1613 48.027C64.085 48.027 64.0469 47.9793 64.0469 47.884L64.0755 28.2306C64.0755 28.1544 64.1136 28.1162 64.1899 28.1162H73.3729C73.4492 28.1162 73.4873 28.1639 73.4873 28.2592V31.4633C73.4873 31.5396 73.4492 31.5777 73.3729 31.5777H67.5084V36.0405H73.3729C73.4492 36.0405 73.4873 36.0786 73.4873 36.1549L73.5159 39.3875C73.5159 39.4638 73.4778 39.502 73.4015 39.502H67.5084V44.5083H73.4015C73.4778 44.5083 73.5159 44.556 73.5159 44.6513V47.9126C73.5159 47.9889 73.4778 48.027 73.4015 48.027H64.1613Z" fill="black"/>
<path d="M94.2791 20.2868C94.2219 20.2868 94.1933 20.2486 94.1933 20.1723L94.2219 12.0478L90.3885 0.490407C90.3695 0.41412 90.3981 0.375977 90.4744 0.375977H93.6498C93.7451 0.375977 93.8024 0.41412 93.8214 0.490407L95.9384 8.18581L98.0839 0.490407C98.103 0.41412 98.1507 0.375977 98.227 0.375977H101.431C101.507 0.375977 101.536 0.41412 101.517 0.490407L97.6548 11.9334L97.6834 20.1723C97.6834 20.2486 97.6453 20.2868 97.569 20.2868H94.2791Z" fill="black"/>
<path d="M76.3722 20.2868C76.296 20.2868 76.2578 20.2391 76.2578 20.1437L76.315 0.490407C76.315 0.41412 76.3532 0.375977 76.4295 0.375977H79.9196C79.9959 0.375977 80.0626 0.41412 80.1198 0.490407L82.7231 4.26659L85.3264 0.490407C85.3836 0.41412 85.4503 0.375977 85.5266 0.375977H89.0453C89.1216 0.375977 89.1598 0.41412 89.1598 0.490407L89.217 20.1437C89.217 20.2391 89.1788 20.2868 89.1026 20.2868H85.8699C85.7936 20.2868 85.7555 20.2391 85.7555 20.1437L85.7269 5.55392L82.7231 9.90226L79.7479 5.55392L79.7193 20.1437C79.7193 20.2391 79.6812 20.2868 79.6049 20.2868H76.3722Z" fill="black"/>
<path d="M63.0625 20.1437L66.6098 0.490407C66.6289 0.41412 66.6766 0.375977 66.7529 0.375977H70.9009C70.9772 0.375977 71.0249 0.41412 71.044 0.490407L74.4483 20.1437C74.4673 20.2391 74.4292 20.2868 74.3338 20.2868H71.1584C71.0821 20.2868 71.0344 20.2391 71.0154 20.1437L70.7007 18.0554H66.8101L66.4954 20.1437C66.4763 20.2391 66.4286 20.2868 66.3524 20.2868H63.1769C63.1006 20.2868 63.0625 20.2391 63.0625 20.1437ZM67.3822 14.9944H70.1285L68.9556 6.95569L68.784 5.89721L68.6696 6.95569L67.3822 14.9944Z" fill="black"/>
<defs>
<linearGradient id="paint0_linear_6576_7776" x1="19.6171" y1="38.5583" x2="30.5698" y2="38.6597" gradientUnits="userSpaceOnUse">
<stop stop-color="#2A34FE"/>
<stop offset="1" stop-color="#069FFF"/>
</linearGradient>
<linearGradient id="paint1_linear_6576_7776" x1="27.8337" y1="11.7231" x2="7.10278" y2="48.3131" gradientUnits="userSpaceOnUse">
<stop stop-color="#015DF4"/>
<stop offset="1" stop-color="#25E1FF"/>
</linearGradient>
<linearGradient id="paint2_linear_6576_7776" x1="34.7385" y1="24.948" x2="48.44" y2="48.3129" gradientUnits="userSpaceOnUse">
<stop stop-color="#015DF4"/>
<stop offset="1" stop-color="#25E1FF"/>
</linearGradient>
</defs>
</svg>
