<svg width="134" height="56" viewBox="0 0 134 56" fill="none" xmlns="http://www.w3.org/2000/svg">
<path d="M126.544 55.1127C126.486 55.1127 126.457 55.0766 126.457 55.0043L126.479 40.1309C126.479 40.0586 126.515 40.0225 126.587 40.0225H128.994C129.066 40.0225 129.102 40.0586 129.102 40.1309L129.08 52.4459H133.547C133.619 52.4459 133.655 52.4821 133.655 52.5543V55.0043C133.655 55.0766 133.619 55.1127 133.547 55.1127H126.544Z" fill="black"/>
<path d="M116.469 55.0043L119.157 40.1092C119.172 40.0514 119.208 40.0225 119.266 40.0225H122.409C122.467 40.0225 122.503 40.0514 122.518 40.1092L125.098 55.0043C125.112 55.0766 125.083 55.1127 125.011 55.1127H122.605C122.547 55.1127 122.511 55.0766 122.496 55.0043L122.258 53.4216H119.309L119.071 55.0043C119.056 55.0766 119.02 55.1127 118.962 55.1127H116.555C116.498 55.1127 116.469 55.0766 116.469 55.0043ZM119.743 51.1017H121.824L120.935 45.0092L120.805 44.207L120.718 45.0092L119.743 51.1017Z" fill="black"/>
<path d="M112.765 55.1127C112.692 55.1127 112.656 55.0766 112.656 55.0043L112.678 40.1092C112.678 40.0514 112.707 40.0225 112.765 40.0225H115.193C115.251 40.0225 115.28 40.0514 115.28 40.1092L115.301 55.0043C115.301 55.0766 115.272 55.1127 115.215 55.1127H112.765Z" fill="black"/>
<path d="M106.82 55.3298C106.025 55.3298 105.302 55.1346 104.652 54.7444C104.016 54.3396 103.51 53.8048 103.134 53.1399C102.758 52.475 102.57 51.7306 102.57 50.9068L102.592 44.1421C102.592 43.3472 102.773 42.6244 103.134 41.974C103.51 41.3091 104.016 40.7815 104.652 40.3913C105.302 39.9865 106.025 39.7842 106.82 39.7842C107.615 39.7842 108.33 39.9793 108.966 40.3696C109.602 40.7598 110.108 41.2874 110.484 41.9523C110.86 42.6028 111.048 43.3327 111.048 44.1421V45.1395C111.048 45.1973 111.019 45.2262 110.961 45.2262H108.533C108.475 45.2262 108.446 45.1973 108.446 45.1395V44.1421C108.446 43.6652 108.287 43.2532 107.969 42.9063C107.665 42.5594 107.282 42.386 106.82 42.386C106.299 42.386 105.902 42.5666 105.627 42.928C105.353 43.2749 105.215 43.6796 105.215 44.1421V50.9068C105.215 51.4416 105.367 51.8752 105.671 52.2076C105.989 52.5401 106.372 52.7063 106.82 52.7063C107.282 52.7063 107.665 52.5256 107.969 52.1643C108.287 51.7885 108.446 51.3693 108.446 50.9068V49.9094C108.446 49.8516 108.475 49.8227 108.533 49.8227H110.983C111.04 49.8227 111.069 49.8516 111.069 49.9094V50.9068C111.069 51.7306 110.874 52.475 110.484 53.1399C110.108 53.8048 109.602 54.3396 108.966 54.7444C108.33 55.1346 107.615 55.3298 106.82 55.3298Z" fill="black"/>
<path d="M92.9666 55.1127C92.851 55.1127 92.7932 55.0621 92.7932 54.961L92.7715 40.1959C92.7715 40.0803 92.8293 40.0225 92.9449 40.0225H94.8963L98.5604 48.5649L98.452 40.1959C98.452 40.0803 98.517 40.0225 98.6471 40.0225H100.794C100.88 40.0225 100.924 40.0803 100.924 40.1959L100.945 54.9826C100.945 55.0694 100.909 55.1127 100.837 55.1127H98.929L95.1781 47.134L95.3299 54.9393C95.3299 55.0549 95.2648 55.1127 95.1347 55.1127H92.9666Z" fill="black"/>
<path d="M82.7832 55.0043L85.4717 40.1092C85.4861 40.0514 85.5223 40.0225 85.5801 40.0225H88.7239C88.7817 40.0225 88.8178 40.0514 88.8323 40.1092L91.4124 55.0043C91.4268 55.0766 91.3979 55.1127 91.3256 55.1127H88.919C88.8612 55.1127 88.8251 55.0766 88.8106 55.0043L88.5721 53.4216H85.6234L85.385 55.0043C85.3705 55.0766 85.3344 55.1127 85.2766 55.1127H82.8699C82.8121 55.1127 82.7832 55.0766 82.7832 55.0043ZM86.0571 51.1017H88.1385L87.2495 45.0092L87.1195 44.207L87.0327 45.0092L86.0571 51.1017Z" fill="black"/>
<path d="M73.6561 55.1127C73.5404 55.1127 73.4826 55.0621 73.4826 54.961L73.4609 40.1959C73.4609 40.0803 73.5188 40.0225 73.6344 40.0225H75.5857L79.2498 48.5649L79.1414 40.1959C79.1414 40.0803 79.2065 40.0225 79.3366 40.0225H81.483C81.5697 40.0225 81.6131 40.0803 81.6131 40.1959L81.6348 54.9826C81.6348 55.0694 81.5986 55.1127 81.5264 55.1127H79.6184L75.8676 47.134L76.0193 54.9393C76.0193 55.0549 75.9543 55.1127 75.8242 55.1127H73.6561Z" fill="black"/>
<path d="M69.0186 55.1127C68.9463 55.1127 68.9102 55.0766 68.9102 55.0043L68.9318 40.1092C68.9318 40.0514 68.9607 40.0225 69.0186 40.0225H71.4469C71.5047 40.0225 71.5336 40.0514 71.5336 40.1092L71.5553 55.0043C71.5553 55.0766 71.5264 55.1127 71.4685 55.1127H69.0186Z" fill="black"/>
<path d="M59.6807 55.1127C59.6084 55.1127 59.5723 55.0766 59.5723 55.0043L59.6156 40.1092C59.6156 40.0514 59.6445 40.0225 59.7024 40.0225H66.6404C66.7126 40.0225 66.7488 40.0514 66.7488 40.1092V42.5592C66.7488 42.617 66.7199 42.6459 66.662 42.6459H62.2174V46.0065H66.662C66.7199 46.0065 66.7488 46.0427 66.7488 46.1149L66.7705 48.5649C66.7705 48.6228 66.7343 48.6517 66.662 48.6517H62.2174V55.0043C62.2174 55.0766 62.1812 55.1127 62.109 55.1127H59.6807Z" fill="black"/>
<path d="M49.6659 55.1127C49.6225 55.1127 49.6008 55.0838 49.6008 55.026L49.6225 48.8685L46.7172 40.1092C46.7028 40.0514 46.7245 40.0225 46.7823 40.0225H49.1889C49.2612 40.0225 49.3045 40.0514 49.319 40.1092L50.9234 45.9415L52.5495 40.1092C52.5639 40.0514 52.6001 40.0225 52.6579 40.0225H55.0862C55.144 40.0225 55.1657 40.0514 55.1512 40.1092L52.2243 48.7818L52.246 55.026C52.246 55.0838 52.217 55.1127 52.1592 55.1127H49.6659Z" fill="black"/>
<path d="M36.0906 55.1127C36.0328 55.1127 36.0039 55.0766 36.0039 55.0043L36.0473 40.1092C36.0473 40.0514 36.0762 40.0225 36.134 40.0225H38.7791C38.8369 40.0225 38.8875 40.0514 38.9309 40.1092L40.9039 42.9711L42.8769 40.1092C42.9202 40.0514 42.9708 40.0225 43.0286 40.0225H45.6954C45.7533 40.0225 45.7822 40.0514 45.7822 40.1092L45.8255 55.0043C45.8255 55.0766 45.7966 55.1127 45.7388 55.1127H43.2888C43.231 55.1127 43.2021 55.0766 43.2021 55.0043L43.1804 43.9468L40.9039 47.2424L38.649 43.9468L38.6273 55.0043C38.6273 55.0766 38.5984 55.1127 38.5406 55.1127H36.0906Z" fill="black"/>
<path d="M26.0176 55.0043L28.7061 40.1092C28.7205 40.0514 28.7566 40.0225 28.8145 40.0225H31.9583C32.0161 40.0225 32.0522 40.0514 32.0667 40.1092L34.6467 55.0043C34.6612 55.0766 34.6323 55.1127 34.56 55.1127H32.1534C32.0956 55.1127 32.0594 55.0766 32.045 55.0043L31.8065 53.4216H28.8578L28.6193 55.0043C28.6049 55.0766 28.5687 55.1127 28.5109 55.1127H26.1043C26.0465 55.1127 26.0176 55.0766 26.0176 55.0043ZM29.2915 51.1017H31.3729L30.4839 45.0092L30.3538 44.207L30.2671 45.0092L29.2915 51.1017Z" fill="black"/>
<path d="M32.9978 0H25.1936C23.7936 0 22.5259 0.827488 21.9625 2.10914L0.21596 51.5784C-0.516464 53.2445 0.703884 55.1141 2.52388 55.1141H14.2346C15.8131 55.1141 17.2466 54.1933 17.903 52.7576L38.2712 8.20965C40.0271 4.36928 37.2205 0 32.9978 0Z" fill="url(#paint0_linear_7883_8161)"/>
<path d="M24.5009 0H37.461C38.4334 0 39.319 0.559186 39.7371 1.43707L54.3489 32.1175C55.1389 33.7764 53.946 35.6961 52.1087 35.7224L39.9623 35.8958C38.9944 35.9096 38.1041 35.3681 37.6713 34.5023L22.2459 3.64848C21.4079 1.97221 22.6268 0 24.5009 0Z" fill="url(#paint1_linear_7883_8161)"/>
<path d="M46.3603 0H59.3204C60.2927 0 61.1784 0.559186 61.5965 1.43707L76.2082 32.1175C76.9983 33.7764 75.8054 35.6961 73.9681 35.7224L61.8216 35.8958C60.8538 35.9096 59.9635 35.3681 59.5307 34.5023L44.1053 3.64848C43.2673 1.97221 44.4862 0 46.3603 0Z" fill="#D9D9D9"/>
<path d="M46.3603 0H59.3204C60.2927 0 61.1784 0.559186 61.5965 1.43707L76.2082 32.1175C76.9983 33.7764 75.8054 35.6961 73.9681 35.7224L61.8216 35.8958C60.8538 35.9096 59.9635 35.3681 59.5307 34.5023L44.1053 3.64848C43.2673 1.97221 44.4862 0 46.3603 0Z" fill="url(#paint2_linear_7883_8161)"/>
<defs>
<linearGradient id="paint0_linear_7883_8161" x1="5.91167" y1="55.7473" x2="41.1783" y2="22.1217" gradientUnits="userSpaceOnUse">
<stop stop-color="#F49B00"/>
<stop offset="1" stop-color="#DA5000"/>
</linearGradient>
<linearGradient id="paint1_linear_7883_8161" x1="49.4765" y1="34.5789" x2="34.4589" y2="-0.43344" gradientUnits="userSpaceOnUse">
<stop stop-color="#F45A01"/>
<stop offset="1" stop-color="#FFA425"/>
</linearGradient>
<linearGradient id="paint2_linear_7883_8161" x1="71.3359" y1="34.5789" x2="56.3183" y2="-0.43344" gradientUnits="userSpaceOnUse">
<stop stop-color="#F45A01"/>
<stop offset="1" stop-color="#FFA425"/>
</linearGradient>
</defs>
</svg>
